# xmcd CD database file
#
# Track frame offsets:
#	150
#	21367
#	40220
#	58155
#	82845
#	102657
#	121925
#	144482
#	162762
#	184092
#
# Disc length: 2673 seconds
#
# Revision: 8
# Processed by: cddbd v1.4PL0 Copyright (c) Steve Scherf et al.
# Submitted via: Feurio! 1.65.3ß - http://www.feurio.com
#
DISCID=820a6f0a
DTITLE=Jumpin' Johnny Sansone - Mr. Good Thing
DYEAR=1990
DGENRE=Blues
TTITLE0=Trouble
TTITLE1=She Wants Money
TTITLE2=Dishrag
TTITLE3=Goodbye To Love
TTITLE4=Don´t Cry Baby
TTITLE5=Midnight Til Morning
TTITLE6=Mr. Good Thing
TTITLE7=Way Down The Line
TTITLE8=Running From Trouble
TTITLE9=Johnny And Janie
EXTD=
EXTT0=
EXTT1=
EXTT2=
EXTT3=
EXTT4=
EXTT5=
EXTT6=
EXTT7=
EXTT8=
EXTT9=
PLAYORDER=
